<?xml version="1.0" encoding="UTF-8" standalone="no"?>
<!-- Created with Inkscape (http://www.inkscape.org/) -->

<svg
   width="411.67804mm"
   height="97.031975mm"
   viewBox="0 0 411.67804 97.031975"
   version="1.1"
   id="svg1"
   sodipodi:docname="logotype_light.svg"
   inkscape:version="1.4 (e7c3feb100, 2024-10-09)"
   xmlns:inkscape="http://www.inkscape.org/namespaces/inkscape"
   xmlns:sodipodi="http://sodipodi.sourceforge.net/DTD/sodipodi-0.dtd"
   xmlns="http://www.w3.org/2000/svg"
   xmlns:svg="http://www.w3.org/2000/svg">
  <sodipodi:namedview
     id="namedview1"
     pagecolor="#505050"
     bordercolor="#eeeeee"
     borderopacity="1"
     inkscape:showpageshadow="0"
     inkscape:pageopacity="0"
     inkscape:pagecheckerboard="0"
     inkscape:deskcolor="#505050"
     inkscape:document-units="mm"
     showguides="true"
     inkscape:zoom="0.17679978"
     inkscape:cx="-42.420867"
     inkscape:cy="-158.37124"
     inkscape:window-width="1189"
     inkscape:window-height="1043"
     inkscape:window-x="4928"
     inkscape:window-y="0"
     inkscape:window-maximized="0"
     inkscape:current-layer="layer1" />
  <defs
     id="defs1" />
  <g
     id="layer1"
     transform="translate(-155.0989,-165.07247)">
    <g
       id="g4"
       style="fill:#3c4d65;fill-opacity:1">
      <g
         id="g94"
         transform="matrix(0.26458333,0,0,0.26458333,-2049.6382,-181.99009)"
         style="fill:#3c4d65;fill-opacity:1;stroke-width:1.00157;stroke-dasharray:none">
        <path
           id="path87"
           d="m 6824.84,9063.7 c -118.57,0 -226.02,-90.77 -226.02,-255.64 0,-164.88 107.45,-255.66 226.02,-255.66 120.41,0 227.86,92.63 227.86,257.5 0,164.87 -107.45,253.8 -227.86,253.8 m 94.47,276.01 c 253.8,0 455.71,-203.76 455.71,-529.81 0,-326.03 -201.91,-533.52 -455.71,-533.52 -151.91,0 -261.2,72.24 -318.63,159.32 V 7798.44 H 6283.91 V 9324.9 h 316.77 v -146.37 c 57.43,90.79 166.72,161.18 318.63,161.18"
           style="fill:#3c4d65;fill-opacity:1;fill-rule:nonzero;stroke:none;stroke-width:7.51181;stroke-dasharray:none"
           transform="matrix(0.13333333,0,0,-0.13333333,8060,2666.6667)" />
        <path
           id="path88"
           d="M 7858.51,8291.21 H 7541.73 V 9324.9 h 316.78 v -172.29 c 72.26,109.3 185.25,183.39 324.19,183.39 v -335.29 h -87.07 c -150.04,0 -237.12,-51.86 -237.12,-229.71"
           style="fill:#3c4d65;fill-opacity:1;fill-rule:nonzero;stroke:none;stroke-width:7.51181;stroke-dasharray:none"
           transform="matrix(0.13333333,0,0,-0.13333333,8060,2666.6667)" />
        <path
           id="path89"
           d="m 8334.6,9324.9 h 316.77 V 8291.21 H 8334.6 Z m -29.64,277.86 c 0,96.33 75.96,172.3 188.96,172.3 111.14,0 187.1,-75.97 187.1,-172.3 0,-94.48 -75.96,-170.43 -187.1,-170.43 -113,0 -188.96,75.95 -188.96,170.43"
           style="fill:#3c4d65;fill-opacity:1;fill-rule:nonzero;stroke:none;stroke-width:7.51181;stroke-dasharray:none"
           transform="matrix(0.13333333,0,0,-0.13333333,8060,2666.6667)" />
        <path
           id="path90"
           d="m 9336.81,9339.71 c 259.35,0 442.74,-142.64 496.46,-389.01 h -337.14 c -25.95,72.24 -77.81,118.56 -164.88,118.56 -113,0 -190.8,-88.93 -190.8,-261.2 0,-172.28 77.8,-261.2 190.8,-261.2 87.07,0 137.08,42.61 164.88,118.55 h 337.14 c -53.72,-238.96 -237.11,-389.03 -496.46,-389.03 -303.8,0 -518.7,203.79 -518.7,531.68 0,326.04 214.9,531.65 518.7,531.65"
           style="fill:#3c4d65;fill-opacity:1;fill-rule:nonzero;stroke:none;stroke-width:7.51181;stroke-dasharray:none"
           transform="matrix(0.13333333,0,0,-0.13333333,8060,2666.6667)" />
        <path
           id="path91"
           d="m 10255.6,8908.09 h 396.5 c 0,113.01 -88.9,177.85 -194.5,177.85 -103.8,0 -183.4,-63 -202,-177.85 m 205.7,-631.71 c -303.8,0 -522.44,203.79 -522.44,531.67 0,327.9 214.94,531.66 522.44,531.66 301.9,0 515,-200.07 515,-514.97 0,-29.66 -1.9,-61.14 -5.6,-92.63 h -716.9 c 11.1,-135.24 94.5,-198.23 196.4,-198.23 88.9,0 138.9,44.46 164.8,100.03 h 337.2 c -50,-201.9 -233.4,-357.53 -490.9,-357.53"
           style="fill:#3c4d65;fill-opacity:1;fill-rule:nonzero;stroke:none;stroke-width:7.51181;stroke-dasharray:none"
           transform="matrix(0.13333333,0,0,-0.13333333,8060,2666.6667)" />
        <path
           id="path92"
           d="m 11193,9061.86 h -126 v 263.05 h 126 v 251.91 h 316.8 v -251.91 h 207.5 v -263.05 h -207.5 v -414.97 c 0,-61.14 25.9,-87.07 96.3,-87.07 h 113 V 8291.21 H 11558 c -214.9,0 -365,90.77 -365,359.38"
           style="fill:#3c4d65;fill-opacity:1;fill-rule:nonzero;stroke:none;stroke-width:7.51181;stroke-dasharray:none"
           transform="matrix(0.13333333,0,0,-0.13333333,8060,2666.6667)" />
        <path
           id="path93"
           d="m 12211.9,8291.21 h -316.8 V 9324.9 h 316.8 v -172.29 c 72.2,109.3 185.2,183.39 324.2,183.39 v -335.29 h -87.1 c -150.1,0 -237.1,-51.86 -237.1,-229.71"
           style="fill:#3c4d65;fill-opacity:1;fill-rule:nonzero;stroke:none;stroke-width:7.51181;stroke-dasharray:none"
           transform="matrix(0.13333333,0,0,-0.13333333,8060,2666.6667)" />
        <path
           id="path94"
           d="m 13173.3,9063.7 c -118.5,0 -226,-88.93 -226,-253.8 0,-164.87 107.5,-257.5 226,-257.5 120.4,0 226,90.78 226,255.66 0,164.87 -105.6,255.64 -226,255.64 m -92.6,276.01 c 153.7,0 263,-70.39 318.6,-161.18 v 146.37 h 316.8 V 8291.21 h -316.8 v 146.34 c -57.4,-90.77 -166.7,-161.17 -320.5,-161.17 -251.9,0 -453.8,207.49 -453.8,533.52 0,326.05 201.9,529.81 455.7,529.81"
           style="fill:#3c4d65;fill-opacity:1;fill-rule:nonzero;stroke:none;stroke-width:7.51181;stroke-dasharray:none"
           transform="matrix(0.13333333,0,0,-0.13333333,8060,2666.6667)" />
      </g>
      <g
         id="g123"
         transform="matrix(0.26458333,0,0,0.26458333,-4398.1569,-89.486079)"
         style="stroke-width:1.00157;stroke-dasharray:none;fill:#3c4d65;fill-opacity:1">
        <path
           id="path25-9"
           style="stroke-width:1.00157;stroke-dasharray:none;fill:#3c4d65;fill-opacity:1;fill-rule:nonzero;stroke:none"
           d="m 17209.156,999.76341 3.738,10.37699 c 7.732,21.4651 28.095,35.7753 50.91,35.7754 h 28.747 l 53.007,147.0156 c 7.558,20.975 27.459,34.9551 49.754,34.9551 h 153.809 c 22.297,0 42.198,-13.9801 49.756,-34.9551 l 21.588,-59.9102 c -75.702,-6.1492 -138.196,-60.9363 -156.014,-132.8554 -85.098,-0.1572 -170.197,-0.28312 -255.295,-0.40239 z"
           sodipodi:nodetypes="cccccsscccc"
           transform="translate(-2.2047244e-4)" />
        <g
           id="g2"
           style="stroke-width:1.00157;stroke-dasharray:none;fill:#3c4d65;fill-opacity:1">
          <path
             id="path27-0"
             d="m 17499.361,962.11107 v 0 c 2.021,71.59323 59.853,129.40663 131.439,131.44433 -2.024,-71.5933 -59.851,-129.40673 -131.439,-131.44433"
             style="fill:#3c4d65;fill-opacity:1;fill-rule:nonzero;stroke:none;stroke-width:1.00157;stroke-linecap:square;stroke-linejoin:miter;stroke-dasharray:none;stroke-opacity:1;paint-order:markers stroke fill" />
          <path
             id="path28-2"
             d="m 17724.123,1000.2043 v 0 c -50.831,1.4506 -91.887,42.514 -93.323,93.3511 50.826,-1.4506 91.887,-42.514 93.323,-93.3511"
             style="fill:#3c4d65;fill-opacity:1;fill-rule:nonzero;stroke:none;stroke-width:1.00157;stroke-linecap:square;stroke-dasharray:none;stroke-opacity:1;paint-order:fill markers stroke" />
        </g>
        <g
           id="g1"
           style="fill:#3c4d65;fill-opacity:1;stroke-width:1.00157;stroke-dasharray:none">
          <path
             id="path29-3"
             d="m 17556.059,1294.8899 c 0,18.7546 -15.202,33.9562 -33.956,33.9562 -18.751,0 -33.956,-15.2016 -33.956,-33.9562 0,-18.7544 15.205,-33.9562 33.956,-33.9562 18.754,0 33.956,15.2018 33.956,33.9562"
             style="fill:#3c4d65;fill-opacity:1;fill-rule:nonzero;stroke:none;stroke-width:1.00157;stroke-dasharray:none" />
          <path
             id="path30-7"
             d="m 17398.11,1294.8899 c 0,18.7546 -15.202,33.9562 -33.956,33.9562 -18.752,0 -33.956,-15.2016 -33.956,-33.9562 0,-18.7544 15.204,-33.9562 33.956,-33.9562 18.754,0 33.956,15.2018 33.956,33.9562"
             style="fill:#3c4d65;fill-opacity:1;fill-rule:nonzero;stroke:none;stroke-width:1.00157;stroke-dasharray:none" />
        </g>
      </g>
    </g>
  </g>
</svg>
